<svg viewBox="0 0 200 200" fill="none" xmlns="http://www.w3.org/2000/svg">
<path d="M162.5 112.5C162.516 115.048 161.742 117.539 160.284 119.629C158.826 121.719 156.756 123.306 154.359 124.172L114.008 139.016L99.1641 179.336C98.2851 181.724 96.6947 183.785 94.6075 185.241C92.5204 186.697 90.0369 187.477 87.4922 187.477C84.9475 187.477 82.4641 186.697 80.3769 185.241C78.2898 183.785 76.6994 181.724 75.8203 179.336L60.9375 139.062L20.6094 124.219C18.2213 123.34 16.1604 121.749 14.7046 119.662C13.2488 117.575 12.4683 115.092 12.4683 112.547C12.4683 110.002 13.2488 107.519 14.7046 105.432C16.1604 103.344 18.2213 101.754 20.6094 100.875L60.961 86.0313L75.8047 45.7109C76.6837 43.3229 78.2741 41.2619 80.3613 39.8061C82.4484 38.3504 84.9319 37.5698 87.4766 37.5698C90.0213 37.5698 92.5048 38.3504 94.5919 39.8061C96.6791 41.2619 98.2694 43.3229 99.1485 45.7109L113.992 86.0625L154.313 100.906C156.706 101.76 158.777 103.331 160.242 105.407C161.708 107.482 162.496 109.959 162.5 112.5ZM118.75 37.5H131.25V50C131.25 51.6576 131.909 53.2473 133.081 54.4194C134.253 55.5915 135.842 56.25 137.5 56.25C139.158 56.25 140.747 55.5915 141.919 54.4194C143.092 53.2473 143.75 51.6576 143.75 50V37.5H156.25C157.908 37.5 159.497 36.8415 160.669 35.6694C161.842 34.4973 162.5 32.9076 162.5 31.25C162.5 29.5924 161.842 28.0027 160.669 26.8306C159.497 25.6585 157.908 25 156.25 25H143.75V12.5C143.75 10.8424 143.092 9.25268 141.919 8.08058C140.747 6.90848 139.158 6.25 137.5 6.25C135.842 6.25 134.253 6.90848 133.081 8.08058C131.909 9.25268 131.25 10.8424 131.25 12.5V25H118.75C117.092 25 115.503 25.6585 114.331 26.8306C113.159 28.0027 112.5 29.5924 112.5 31.25C112.5 32.9076 113.159 34.4973 114.331 35.6694C115.503 36.8415 117.092 37.5 118.75 37.5ZM187.5 62.5H181.25V56.25C181.25 54.5924 180.592 53.0027 179.419 51.8306C178.247 50.6585 176.658 50 175 50C173.342 50 171.753 50.6585 170.581 51.8306C169.409 53.0027 168.75 54.5924 168.75 56.25V62.5H162.5C160.842 62.5 159.253 63.1585 158.081 64.3306C156.909 65.5027 156.25 67.0924 156.25 68.75C156.25 70.4076 156.909 71.9973 158.081 73.1694C159.253 74.3415 160.842 75 162.5 75H168.75V81.25C168.75 82.9076 169.409 84.4973 170.581 85.6694C171.753 86.8415 173.342 87.5 175 87.5C176.658 87.5 178.247 86.8415 179.419 85.6694C180.592 84.4973 181.25 82.9076 181.25 81.25V75H187.5C189.158 75 190.747 74.3415 191.919 73.1694C193.092 71.9973 193.75 70.4076 193.75 68.75C193.75 67.0924 193.092 65.5027 191.919 64.3306C190.747 63.1585 189.158 62.5 187.5 62.5Z" fill="#F59E0B"/>
</svg>
