<svg width="364" height="264" viewBox="0 0 1080 1080" fill="none" xmlns="http://www.w3.org/2000/svg">
<g clip-path="url(#clip0_1214_1042)">
<circle cx="540.5" cy="540.5" r="475.5" fill="#F59E0B"/>
<path d="M456.185 31.2376C352.248 50.5534 272.225 89.185 197.108 156.024C114.939 229.608 58.2182 327.72 34.3034 438.709C25.1054 481.326 22.9592 566.868 29.7044 612.551C58.8314 807.549 192.816 968.514 376.469 1029.22C438.402 1049.76 465.996 1054.06 540.5 1054.06C596.914 1054.06 611.018 1052.83 638.919 1047.31C816.133 1009.9 955.33 893.397 1021.56 726.606C1066.63 612.858 1066.63 468.143 1021.56 354.394C955.636 188.217 816.44 71.0956 641.678 34.3036C595.688 24.799 500.335 23.266 456.185 31.2376ZM540.5 68.3362C540.5 71.4022 537.434 75.6946 534.061 77.8408C527.623 81.2134 527.316 82.4398 529.462 116.779C531.609 152.038 534.061 160.316 542.34 160.316C544.792 160.316 546.632 162.769 546.632 166.142C546.632 172.887 535.901 175.646 508 175.646C490.524 175.646 488.378 175.033 488.378 169.821C488.378 166.448 491.137 163.076 494.203 161.849C502.482 159.396 503.095 156.33 500.335 120.458C497.269 82.7464 496.656 80.6002 488.378 80.6002C483.779 80.6002 482.246 78.454 482.246 73.2418C482.246 64.9636 486.232 64.0438 524.557 62.8174C538.66 62.2042 540.5 62.8174 540.5 68.3362ZM670.805 83.053C675.711 85.5058 684.295 88.5718 689.201 89.7982C698.092 91.6378 698.399 91.9444 699.319 112.487C700.239 132.109 699.932 133.029 693.493 132.109C689.201 131.496 685.828 127.51 682.762 118.925C671.112 84.586 637.692 84.586 624.815 118.925C613.777 147.746 620.216 170.741 641.065 176.873C649.036 179.019 653.942 178.099 666.819 171.66C681.229 164.302 683.376 163.995 687.668 168.288C691.654 172.58 691.347 173.807 683.682 180.245C657.928 202.627 613.164 193.736 595.688 162.769C590.169 152.958 589.249 147.132 590.169 131.189C592.929 86.4256 632.173 62.8174 670.805 83.053ZM424.912 95.317C432.883 103.595 435.336 107.888 433.19 111.26C431.044 114.939 428.898 114.939 420.006 111.873C404.983 106.355 385.974 107.274 378.002 113.713C371.563 118.925 371.563 119.538 375.856 130.576C378.615 136.708 381.988 141.92 383.521 141.92C389.04 141.92 396.398 130.576 395.785 123.218C395.172 117.699 396.398 115.859 400.384 115.859C408.662 115.859 427.058 159.396 420.619 163.382C417.86 165.222 414.181 163.995 409.582 159.703C404.983 155.411 400.69 153.878 395.172 155.411C387.507 157.25 387.507 157.25 392.412 168.901C399.157 185.151 402.53 188.523 410.502 186.684C415.714 185.151 417.86 186.377 419.393 191.283C420.619 194.655 420.926 198.028 420.313 198.335C420.006 198.948 408.049 204.16 393.945 210.292C369.111 221.023 368.804 221.023 365.431 214.891C362.672 209.679 362.979 207.839 366.964 205.693C374.323 201.707 373.403 197.721 357.766 161.849C344.583 132.109 342.743 129.656 335.078 129.656C329.559 129.656 326.187 127.817 325.267 124.137C324.04 119.232 330.172 115.553 362.365 101.449C383.521 91.9444 403.756 83.9728 407.129 83.9728C410.808 83.6662 418.473 88.8784 424.912 95.317ZM803.869 153.264C808.162 156.637 814.6 163.382 817.973 168.288C824.105 177.486 825.945 178.712 832.077 178.712C836.062 178.712 834.223 186.99 827.478 203.853C823.798 212.745 821.346 214.584 816.44 213.358C811.534 212.132 810.308 209.066 810.308 199.561C810.308 183.618 803.563 171.354 792.219 166.448C772.903 158.477 771.37 170.741 789.153 194.349C812.454 225.009 814.6 238.193 798.351 253.523C780.261 270.999 748.375 264.56 731.512 240.339C726.913 233.594 721.394 228.688 719.248 229.301C710.663 232.367 709.743 222.863 717.408 203.853C727.833 177.792 734.578 178.712 737.031 206C738.87 223.782 740.097 226.848 749.908 236.046C762.478 247.391 767.691 248.31 774.742 241.259C780.568 235.74 779.035 232.367 759.412 205.386C740.403 179.939 741.63 160.623 762.785 148.359C771.37 143.453 794.058 146.213 803.869 153.264ZM278.357 172.887C276.517 180.552 279.277 184.844 300.126 207.839C322.814 232.367 332.012 238.193 336.611 230.834C338.757 227.155 347.342 232.367 347.342 237.273C347.342 240.645 310.857 274.985 305.951 276.211C300.432 277.437 297.673 268.239 301.352 261.494C304.111 256.589 301.045 251.683 281.116 230.221C254.136 200.787 250.763 198.335 244.324 203.547C240.645 206.613 238.806 206.306 234.513 202.014C229.608 197.108 230.527 195.882 250.763 177.486C267.013 162.769 273.145 158.783 276.211 161.236C278.664 163.076 279.583 167.675 278.357 172.887ZM592.929 232.367C691.654 249.537 775.049 311.163 819.506 399.464C897.076 553.377 835.143 741.936 681.536 819.506C504.321 909.033 289.395 812.761 237.579 620.523C230.834 594.768 229.608 584.651 229.608 542.033C229.301 488.685 232.98 467.223 249.23 425.525C303.192 288.475 448.52 206.919 592.929 232.367ZM141.307 427.671C143.453 429.818 144.986 435.643 144.986 440.855C144.986 452.813 140.08 457.718 128.123 457.718C116.166 457.718 111.26 452.813 111.26 440.855C111.26 428.898 116.166 423.992 128.123 423.992C133.335 423.992 139.161 425.525 141.307 427.671ZM959.929 427.671C962.075 429.818 963.608 435.643 963.608 440.855C963.608 446.067 962.075 451.893 959.929 454.039C957.783 456.185 951.957 457.718 946.745 457.718C941.533 457.718 935.707 456.185 933.561 454.039C931.415 451.893 929.882 446.067 929.882 440.855C929.882 435.643 931.415 429.818 933.561 427.671C935.707 425.525 941.533 423.992 946.745 423.992C951.957 423.992 957.783 425.525 959.929 427.671ZM989.056 484.392C968.514 485.006 934.174 485.006 912.406 484.392C890.944 484.086 907.807 483.473 949.811 483.473C992.122 483.473 1009.6 484.086 989.056 484.392ZM168.901 493.59C147.132 494.204 112.18 494.204 90.7178 493.59C68.9492 493.284 86.732 492.671 129.656 492.671C172.58 492.671 190.363 493.284 168.901 493.59ZM907.5 533.448C906.887 538.354 906.274 534.368 906.274 525.17C906.274 515.972 906.887 511.986 907.5 516.585C908.113 521.491 908.113 528.849 907.5 533.448ZM936.014 512.906C936.014 514.439 932.641 515.972 928.349 515.972C924.057 515.972 920.684 517.199 920.684 519.038C920.684 520.571 923.443 522.104 926.816 522.104C930.189 522.104 932.948 523.331 932.948 525.17C932.948 526.703 930.189 528.236 926.816 528.236C922.83 528.236 920.684 530.382 920.684 534.368C920.684 537.741 919.458 540.5 917.618 540.5C914.245 540.5 913.326 515.052 916.698 511.986C919.764 508.614 936.014 509.534 936.014 512.906ZM955.636 511.68C963.301 514.746 961.462 518.425 952.877 516.585C942.759 514.746 943.066 520.878 953.184 523.331C959.009 524.864 960.849 527.01 959.929 532.222C959.316 537.434 956.863 538.967 950.118 538.967C944.905 538.967 940.613 537.128 939.693 534.368C938.16 530.382 938.773 530.382 943.066 534.062C948.585 538.354 957.476 536.821 957.476 531.302C957.476 529.769 955.636 528.236 953.49 528.236C951.344 528.236 946.745 526.397 943.679 523.944C938.773 520.265 938.467 519.038 941.839 514.746C946.438 509.227 948.278 508.92 955.636 511.68ZM986.296 513.826C993.348 519.038 989.669 528.236 980.164 528.236C974.952 528.236 972.806 530.076 972.806 534.368C972.806 537.741 971.58 540.5 969.74 540.5C966.367 540.5 965.448 515.052 968.82 511.986C971.886 508.614 980.471 509.534 986.296 513.826ZM86.732 538.661C86.732 541.113 83.0528 545.406 78.4538 548.472L69.869 553.991L79.067 556.137C87.9584 557.976 87.9584 558.283 76.9208 558.59C63.1238 558.896 61.2842 553.071 72.935 545.406C80.9066 540.194 83.0528 534.368 77.2274 534.368C75.0812 534.368 71.7086 536.821 69.5624 539.58C65.8832 544.793 65.5766 544.486 65.27 538.354C65.27 534.675 67.4162 531.302 70.7888 530.382C77.8406 528.849 86.732 533.448 86.732 538.661ZM160.316 538.661C160.316 541.113 156.637 545.406 152.038 548.472L143.453 553.991L152.651 556.137C161.542 557.976 161.542 558.283 150.505 558.59C136.708 558.896 134.868 553.071 146.519 545.406C154.491 540.194 156.637 534.368 150.811 534.368C148.665 534.368 145.293 536.821 143.146 539.58C139.467 544.793 139.161 544.486 138.854 538.354C138.854 534.675 141 531.302 144.373 530.382C151.425 528.849 160.316 533.448 160.316 538.661ZM122.911 541.42C124.75 557.976 108.194 565.948 101.755 551.538C96.8498 540.807 102.982 530.689 113.713 531.915C120.151 532.529 122.298 534.675 122.911 541.42ZM195.575 545.099C195.575 556.137 194.655 557.363 187.603 558.283C183.311 558.896 178.099 557.057 175.646 554.604C173.193 551.538 173.193 549.698 175.033 549.698C176.872 549.698 179.325 550.925 180.245 552.764C183.311 557.363 190.976 556.443 190.976 551.231C190.976 548.778 188.523 546.632 185.764 546.632C180.552 546.326 180.552 546.326 185.764 542.34C193.429 536.514 192.202 533.448 183.311 535.595C178.712 536.821 175.646 536.208 175.646 534.368C175.646 532.222 179.938 531.302 185.764 531.915C194.962 532.835 195.575 533.448 195.575 545.099ZM928.349 553.991C936.014 559.509 932.335 568.094 922.217 568.094C916.698 568.094 914.552 569.627 914.552 574.226C914.552 577.599 913.326 580.358 911.486 580.358C908.113 580.358 907.194 554.91 910.566 551.844C913.939 548.472 922.217 549.392 928.349 553.991ZM957.476 552.764C957.476 554.297 955.33 555.83 952.877 555.83C949.504 555.83 947.971 559.509 947.665 568.707L947.358 581.891L946.132 568.707C945.212 560.123 943.372 555.83 940.306 555.83C937.854 555.83 936.014 554.297 936.014 552.764C936.014 550.925 940.92 549.698 946.745 549.698C952.57 549.698 957.476 550.925 957.476 552.764ZM977.712 552.151C981.697 554.604 985.07 570.547 982.924 576.372C982.004 578.519 976.792 580.358 970.966 580.358C960.849 580.358 960.542 580.052 960.542 567.174C960.542 559.816 961.462 552.764 962.688 551.844C965.141 549.085 973.419 549.085 977.712 552.151ZM1021.86 595.688C1021.86 597.528 994.881 598.754 946.745 598.754C898.609 598.754 871.628 597.528 871.628 595.688C871.628 593.849 898.609 592.622 946.745 592.622C994.881 592.622 1021.86 593.849 1021.86 595.688ZM206.306 598.754C206.306 600.594 178.712 601.82 129.656 601.82C80.6 601.82 53.006 600.594 53.006 598.754C53.006 596.915 80.6 595.688 129.656 595.688C178.712 595.688 206.306 596.915 206.306 598.754ZM962.995 626.961C965.141 629.108 966.674 634.933 966.674 640.145C966.674 652.103 961.768 657.008 949.811 657.008C937.854 657.008 932.948 652.103 932.948 640.145C932.948 628.188 937.854 623.282 949.811 623.282C955.023 623.282 960.849 624.815 962.995 626.961ZM140.08 634.32C151.118 645.357 142.84 663.14 126.59 663.14C115.859 663.14 108.194 656.088 108.194 646.277C108.194 636.466 115.859 629.414 126.59 629.414C131.496 629.414 137.628 631.56 140.08 634.32ZM234.207 742.55C244.018 752.361 246.164 756.347 246.164 766.771C246.164 779.648 241.258 787.007 230.834 790.379C224.089 792.525 195.268 784.247 192.509 779.342C191.283 777.809 189.136 776.582 187.603 776.582C181.471 776.582 195.575 794.978 203.853 797.738C208.452 799.577 212.438 802.03 212.438 803.87C212.438 807.855 190.363 813.987 186.99 810.615C183.311 806.936 160.316 767.078 160.316 764.318C160.316 763.092 162.156 760.332 164.608 758.493C167.674 755.733 172.58 756.96 185.151 762.785C213.358 775.662 237.273 770.45 230.527 752.667C227.768 745.002 224.089 744.389 215.811 749.601C203.853 756.96 194.962 745.309 205.08 735.498C212.745 727.526 221.636 729.672 234.207 742.55ZM868.255 736.418C875.307 738.257 875.307 738.564 870.402 743.776C867.336 746.535 862.737 748.988 860.284 748.988C852.619 748.988 844.034 758.186 844.034 766.464C844.034 776.889 849.246 775.356 865.803 759.719C886.958 740.097 905.354 741.323 910.873 762.785C914.245 775.969 912.099 784.247 902.595 794.365C897.996 799.271 894.93 804.789 895.543 806.629C897.382 812.148 891.864 813.068 877.147 810.002C860.284 806.322 859.977 799.884 876.534 796.818C888.798 794.365 899.222 784.247 899.222 774.743C899.222 762.172 893.09 763.398 876.227 779.342C858.138 796.511 849.859 798.657 838.822 788.233C829.011 779.035 829.317 761.559 839.435 749.601C843.727 744.389 847.1 738.87 847.1 737.031C847.1 733.352 856.605 733.045 868.255 736.418ZM307.484 834.836C314.842 842.195 315.149 846.487 308.71 855.685C303.498 863.043 289.701 864.883 283.569 858.751C274.678 849.86 283.263 828.704 295.833 828.704C298.899 828.704 304.111 831.464 307.484 834.836ZM794.978 833.303C806.322 839.129 804.483 846.487 792.219 844.647C773.516 841.888 756.96 858.751 768.917 868.562C775.049 873.774 780.261 869.482 779.035 859.977C777.502 847.713 784.247 848.633 794.978 862.124C805.709 876.227 805.096 881.439 792.219 878.987C779.955 876.534 778.422 881.439 788.539 891.251C796.818 899.222 797.124 899.222 803.869 894.01C807.549 890.944 812.454 881.746 814.294 873.468C816.44 865.19 819.813 857.831 821.652 857.218C824.412 856.298 829.624 872.855 830.237 884.199C830.237 886.652 782.101 926.816 779.035 926.816C774.742 926.816 773.209 920.378 776.582 916.392C781.488 910.26 748.375 871.628 740.097 873.774C737.031 874.694 733.351 873.774 732.432 871.935C730.285 868.562 775.662 829.011 782.101 828.704C784.247 828.704 790.072 830.85 794.978 833.303ZM392.106 891.251C420.926 905.048 428.591 912.406 424.605 923.75C421.539 932.642 413.874 939.08 406.209 939.08C399.157 939.08 398.851 939.693 400.997 950.424C401.917 956.863 404.983 965.448 407.742 969.434C414.487 979.858 408.969 983.537 395.478 977.099C387.2 973.113 383.827 969.127 382.601 962.382C378.309 942.146 374.629 929.882 372.483 929.882C371.257 929.882 368.497 934.175 366.658 939.387C363.898 946.439 363.898 950.118 366.658 954.41C372.483 963.915 367.578 964.221 349.182 956.25C331.399 948.278 326.8 940.307 338.757 938.467C347.649 937.241 365.431 898.302 360.526 890.637C357.766 885.732 358.38 877.76 361.752 877.76C362.672 877.76 376.469 883.892 392.106 891.251ZM680.31 906.887C688.281 910.26 692.574 914.859 697.173 925.59C709.437 953.184 698.706 969.74 659.154 983.537C634.626 992.429 628.494 992.122 634.626 982.004C639.838 974.033 625.122 929.882 616.843 927.736C604.579 924.363 611.325 917.618 633.4 911.18C645.357 907.807 657.008 904.434 658.541 903.821C664.673 901.675 669.579 902.288 680.31 906.887ZM528.849 923.75H549.698L554.297 934.788C556.75 940.92 558.896 947.052 558.896 948.585C558.896 953.797 551.231 951.344 544.179 943.986C531.609 930.495 512.906 931.109 512.906 945.519C512.906 954.41 519.651 955.943 525.477 948.891C534.061 937.854 537.434 940.613 537.434 959.009C537.434 973.419 536.514 975.872 531.609 975.872C528.543 975.872 525.17 973.113 524.25 969.74C523.33 966.368 520.571 963.608 517.812 963.608C514.132 963.608 512.906 966.674 512.906 975.872C512.906 987.523 513.519 988.136 522.104 988.136C532.835 988.136 548.472 981.084 550.311 975.259C550.924 973.419 553.99 972.5 556.75 973.726C561.655 975.566 561.655 976.485 555.83 988.136L549.698 1000.4H520.878C504.934 1000.4 489.911 999.48 487.152 998.561C481.326 996.414 480.713 988.136 486.538 988.136C489.298 988.136 491.137 981.084 492.67 962.995C494.51 942.146 493.897 936.934 489.911 934.175C487.458 932.335 485.312 928.349 485.312 925.283C485.312 920.684 487.152 920.071 496.963 921.911C503.095 922.83 517.505 923.75 528.849 923.75Z" fill="#111827"/>
<path d="M895 470H1014" stroke="#F59E0B" stroke-width="4"/>
<path d="M895 470H1014" stroke="#F59E0B" stroke-width="4"/>
<path d="M895 612H1014" stroke="#F59E0B" stroke-width="4"/>
<path d="M895 612H1014" stroke="#F59E0B" stroke-width="4"/>
<path d="M482.553 250.763C370.95 275.904 290.008 351.021 256.282 459.864C248.617 485.006 248.004 490.831 248.004 540.5C248.004 589.863 248.923 596.301 256.282 621.136C277.744 691.347 319.748 748.068 379.535 787.007C408.355 806.016 432.883 817.053 465.996 826.251C500.949 836.063 580.051 836.063 615.617 826.251C717.408 798.044 798.044 717.408 826.251 614.697C836.062 579.438 836.062 503.708 825.945 466.916C798.351 365.125 722.62 286.942 621.442 256.589C598.447 249.537 587.103 248.31 548.165 247.391C515.665 246.471 496.35 247.697 482.553 250.763ZM493.897 403.143C515.052 431.351 528.236 454.652 538.967 482.859L544.486 497.576L553.377 483.779C571.467 456.492 616.843 419.7 653.022 402.837L668.659 395.478L686.748 409.582C708.823 426.445 733.965 453.119 752.974 478.874C769.837 501.562 770.757 506.774 758.799 506.774C753.894 506.774 749.295 507.694 748.068 508.614C747.148 509.84 753.28 517.199 762.172 525.477C773.209 535.595 776.582 540.194 772.903 540.5C765.238 540.5 766.158 544.179 775.049 552.764C779.341 556.75 782.407 561.349 781.794 563.189C781.181 564.722 771.983 565.948 760.945 565.641C744.389 565.335 742.856 565.641 750.521 568.401C755.733 569.934 765.238 570.854 771.983 570.547L784.247 569.627L783.021 592.316C782.407 608.872 783.327 617.763 787.313 626.655C790.379 633.4 792.219 639.225 791.605 639.839C790.992 640.758 774.436 639.225 755.12 636.466C727.833 632.787 705.757 632.174 658.541 633.707C596.914 635.853 577.599 637.999 553.377 645.051C542.033 648.73 538.354 648.423 522.717 643.211C508 637.999 497.269 637.079 451.586 637.386C421.846 637.386 374.936 640.145 346.422 643.211C318.215 646.277 294.3 648.117 293.38 647.197C292.461 645.971 293.994 640.758 296.753 635.546C300.432 628.494 301.659 619.603 301.045 603.66C300.126 577.905 302.272 570.547 314.842 554.91C322.507 545.099 323.427 542.646 319.748 540.5C316.069 538.354 317.908 534.981 328.639 523.944L341.823 510.453L326.187 508.307C317.602 507.081 310.55 505.548 310.55 504.935C310.55 493.59 379.228 419.7 407.742 399.771L417.553 393.026L429.817 399.158L442.081 405.596L448.213 395.478C451.586 389.96 455.572 381.681 457.411 377.082C462.01 364.818 468.142 369.111 493.897 403.143Z" fill="#111827"/>
<path d="M455.572 388.12C452.199 395.478 442.081 410.502 433.497 421.846C418.78 440.855 396.398 475.501 396.398 479.18C396.398 480.1 402.837 480.407 410.808 479.793C419.7 479.18 430.431 480.713 437.482 483.779C461.091 493.59 504.628 542.953 529.769 588.023C535.901 599.061 541.42 607.952 541.726 607.952C542.34 607.952 542.033 583.424 541.42 553.377C539.887 493.59 537.434 481.02 519.958 448.52C504.628 419.7 470.289 374.936 463.85 374.936C462.93 374.936 459.251 380.762 455.572 388.12Z" fill="#111827"/>
<path d="M400.077 410.195C367.578 434.723 311.47 496.656 316.989 501.869C317.602 502.482 330.786 505.241 345.809 508.001C406.822 518.425 463.85 541.42 498.496 569.321C506.774 576.372 517.505 584.651 521.797 588.023L529.769 594.155L522.411 581.891C509.84 561.042 473.355 513.826 461.704 503.402C443.308 487.458 425.832 481.326 406.209 483.473L389.653 485.312L400.997 464.77C407.129 453.119 418.473 435.95 426.138 426.138C433.803 416.327 439.629 407.742 439.015 407.436C438.402 406.823 433.497 404.063 427.978 401.304C418.473 396.398 418.167 396.398 400.077 410.195Z" fill="#111827"/>
<path d="M645.97 410.195C609.792 429.204 570.24 463.237 552.151 491.138C542.646 506.468 541.726 516.892 545.712 582.811L547.552 617.457L564.721 600.9C595.381 571.16 616.843 556.137 657.315 536.208C694.107 517.812 738.257 503.708 757.879 503.708C765.851 503.708 765.851 502.482 757.573 490.524C733.351 455.572 693.8 415.407 670.192 401.61C668.352 400.384 657.315 404.37 645.97 410.195Z" fill="#111827"/>
<path d="M715.262 514.746C672.338 526.09 589.556 575.453 561.962 606.419C552.764 616.844 555.83 615.004 585.57 593.849C625.735 565.028 667.126 550.005 729.059 542.033C750.828 539.274 769.224 536.514 769.837 535.901C771.37 534.368 738.257 509.84 734.884 510.147C733.351 510.147 724.46 512.293 715.262 514.746Z" fill="#111827"/>
<path d="M334.158 524.557C327.413 531.302 323.427 537.434 324.96 538.354C326.187 539.274 335.691 541.42 345.809 543.566C393.332 553.377 475.194 582.198 518.118 604.579C534.675 613.164 539.58 614.697 537.127 610.711C535.594 607.645 532.835 604.273 531.302 603.353C529.462 602.127 529.156 599.674 530.076 597.834C531.302 595.688 531.302 595.075 529.769 596.301C528.543 597.528 520.264 592.009 511.373 584.037C477.34 553.071 406.209 520.264 360.219 514.132C346.422 512.599 345.196 512.906 334.158 524.557Z" fill="#111827"/>
<path d="M320.055 553.071C316.069 558.283 313.616 562.882 314.229 563.495C314.536 563.802 330.786 565.948 349.795 567.788C397.011 572.693 434.723 579.438 462.93 588.023C475.807 592.009 487.152 595.075 487.458 594.462C491.751 590.476 345.809 543.566 329.253 543.566C328.026 543.566 324.04 547.859 320.055 553.071Z" fill="#111827"/>
<path d="M709.13 548.165C680.616 553.071 654.555 560.429 632.48 570.24C615.004 577.905 576.372 601.82 578.212 603.66C578.825 604.273 587.41 602.127 597.528 598.754C648.73 580.971 734.578 561.962 764.011 561.962L781.181 561.656L770.45 552.764C758.493 542.34 748.068 541.42 709.13 548.165Z" fill="#111827"/>
<path d="M313.003 570.24C303.192 572.693 306.871 578.212 316.989 576.066C322.201 575.146 335.078 574.226 345.196 574.226C355.314 574.226 362.979 573.613 362.365 573C360.219 571.16 318.522 568.707 313.003 570.24Z" fill="#111827"/>
<path d="M696.866 577.292C654.249 584.037 592.009 601.82 565.335 614.697L546.019 623.895L520.878 613.164C460.477 587.103 405.289 575.759 347.035 578.212C327.413 578.825 309.937 580.358 307.791 581.585C305.644 583.118 304.418 593.542 304.418 610.098V636.159L313.003 634.32C335.385 629.414 415.714 626.655 456.185 629.721C498.189 632.787 506.774 634.32 533.448 642.291C545.406 645.664 547.858 645.357 560.122 639.225C580.971 629.414 630.947 625.122 710.97 626.961L779.341 628.494L780.261 602.433C780.874 587.103 779.955 576.066 778.115 575.453C764.625 571.773 727.219 572.387 696.866 577.292ZM716.182 582.504C714.036 583.118 710.356 583.118 708.517 582.504C706.371 581.585 707.904 580.971 712.196 580.971C716.488 580.971 718.021 581.585 716.182 582.504ZM756.04 583.424C752.054 584.957 743.469 584.957 736.111 583.731C723.234 580.971 723.54 580.971 742.856 580.971C757.573 580.665 760.945 581.585 756.04 583.424ZM337.224 585.264C336.304 586.184 333.545 586.49 331.399 585.57C328.946 584.651 329.866 583.731 333.238 583.731C336.611 583.424 338.451 584.344 337.224 585.264ZM357.46 585.57C355.314 586.184 351.021 586.184 348.262 585.57C345.196 584.651 347.035 584.037 351.941 584.037C357.153 584.037 359.299 584.651 357.46 585.57ZM372.79 585.57C370.644 586.184 366.964 586.184 365.125 585.57C362.979 584.651 364.512 584.037 368.804 584.037C373.096 584.037 374.629 584.651 372.79 585.57ZM699.012 585.264C698.092 586.184 695.333 586.49 693.187 585.57C690.734 584.651 691.654 583.731 695.026 583.731C698.399 583.424 700.239 584.344 699.012 585.264ZM319.748 589.556C325.267 593.235 320.361 593.235 312.083 589.556C308.097 587.717 307.484 586.797 310.55 586.797C313.003 586.797 317.295 588.023 319.748 589.556ZM728.446 588.636C724.46 589.25 718.328 589.25 714.649 588.636C710.663 588.023 713.729 587.41 721.394 587.41C729.059 587.41 732.125 588.023 728.446 588.636ZM380.455 591.702C370.644 592.316 354.087 592.316 343.663 591.702C332.932 591.089 340.903 590.783 361.139 590.783C381.375 590.783 389.959 591.089 380.455 591.702ZM699.319 591.702C696.253 592.316 691.347 592.316 688.588 591.702C685.522 590.783 687.975 590.169 693.8 590.169C699.625 590.169 702.078 590.783 699.319 591.702ZM417.247 594.768C414.181 595.382 409.275 595.382 406.516 594.768C403.45 593.849 405.903 593.235 411.728 593.235C417.553 593.235 420.006 593.849 417.247 594.768ZM676.324 594.768C674.178 595.382 670.498 595.382 668.659 594.768C666.513 593.849 668.046 593.235 672.338 593.235C676.63 593.235 678.163 593.849 676.324 594.768ZM723.54 594.462C722.62 595.382 719.861 595.688 717.715 594.768C715.262 593.849 716.182 592.929 719.554 592.929C722.927 592.622 724.767 593.542 723.54 594.462ZM746.842 594.768C742.856 595.382 736.724 595.382 733.045 594.768C729.059 594.155 732.125 593.542 739.79 593.542C747.455 593.542 750.521 594.155 746.842 594.768ZM342.13 597.834C339.984 598.448 335.691 598.448 332.932 597.834C329.866 596.915 331.705 596.301 336.611 596.301C341.823 596.301 343.969 596.915 342.13 597.834ZM375.856 597.834C371.87 598.448 365.738 598.448 362.059 597.834C358.073 597.221 361.139 596.608 368.804 596.608C376.469 596.608 379.535 597.221 375.856 597.834ZM440.242 597.834C438.096 598.448 433.803 598.448 431.044 597.834C427.978 596.915 429.817 596.301 434.723 596.301C439.935 596.301 442.081 596.915 440.242 597.834ZM659.154 597.528C658.234 598.448 655.475 598.754 653.329 597.834C650.876 596.915 651.796 595.995 655.168 595.995C658.541 595.688 660.381 596.608 659.154 597.528ZM700.852 597.834C698.706 598.448 694.413 598.448 691.654 597.834C688.588 596.915 690.427 596.301 695.333 596.301C700.545 596.301 702.691 596.915 700.852 597.834ZM417.247 600.9C412.341 601.514 404.983 601.514 400.384 600.9C395.478 600.287 399.464 599.674 408.662 599.674C417.86 599.674 421.846 600.287 417.247 600.9ZM456.185 601.82C452.812 603.353 445.147 604.273 439.322 604.273L428.591 603.966L439.322 601.82C445.147 600.594 452.812 599.367 456.185 599.367L462.317 599.061L456.185 601.82ZM643.824 600.594C642.904 601.514 640.145 601.82 637.999 600.9C635.546 599.981 636.466 599.061 639.838 599.061C643.211 598.754 645.051 599.674 643.824 600.594ZM679.39 600.9C677.244 601.514 673.564 601.514 671.725 600.9C669.579 599.981 671.112 599.367 675.404 599.367C679.696 599.367 681.229 599.981 679.39 600.9ZM476.114 604.886C473.661 606.419 468.142 607.646 463.85 607.646C456.798 607.646 456.798 607.339 462.317 604.886C465.69 603.353 471.208 602.127 474.581 602.127C479.793 601.82 479.793 602.433 476.114 604.886ZM628.494 603.66C627.574 604.58 624.815 604.886 622.669 603.966C620.216 603.047 621.136 602.127 624.508 602.127C627.881 601.82 629.721 602.74 628.494 603.66ZM662.22 603.66C661.3 604.58 658.541 604.886 656.395 603.966C653.942 603.047 654.862 602.127 658.234 602.127C661.607 601.82 663.447 602.74 662.22 603.66ZM354.394 607.032C352.248 607.646 348.568 607.646 346.729 607.032C344.583 606.113 346.116 605.499 350.408 605.499C354.7 605.499 356.233 606.113 354.394 607.032ZM386.587 607.032C381.988 607.646 373.71 607.646 368.191 607.032C362.672 606.419 366.351 605.806 376.469 605.806C386.587 605.806 391.186 606.419 386.587 607.032ZM491.444 607.952C491.444 609.485 488.685 611.018 485.005 611.018C481.633 611.018 479.793 609.485 480.713 607.952C481.633 606.113 484.699 604.886 487.152 604.886C489.604 604.886 491.444 606.113 491.444 607.952ZM616.23 606.726C615.31 607.646 612.551 607.952 610.405 607.032C607.952 606.113 608.872 605.193 612.244 605.193C615.617 604.886 617.457 605.806 616.23 606.726ZM653.942 607.952C659.461 611.631 654.555 611.631 646.277 607.952C642.291 606.113 641.678 605.193 644.744 605.193C647.197 605.193 651.489 606.419 653.942 607.952ZM692.88 606.726C691.96 607.646 689.201 607.952 687.055 607.032C684.602 606.113 685.522 605.193 688.894 605.193C692.267 604.886 694.107 605.806 692.88 606.726ZM716.182 607.032C712.196 607.646 706.064 607.646 702.385 607.032C698.399 606.419 701.465 605.806 709.13 605.806C716.795 605.806 719.861 606.419 716.182 607.032ZM752.974 607.032C748.988 607.646 742.856 607.646 739.177 607.032C735.191 606.419 738.257 605.806 745.922 605.806C753.587 605.806 756.653 606.419 752.974 607.032ZM603.966 609.792C603.046 610.712 600.287 611.018 598.141 610.098C595.688 609.179 596.608 608.259 599.98 608.259C603.353 607.952 605.193 608.872 603.966 609.792ZM421.846 613.164C414.794 613.778 402.223 613.778 394.252 613.164C386.28 612.551 392.106 612.245 407.129 612.245C422.459 612.245 428.898 612.551 421.846 613.164ZM507.694 613.164C505.548 613.778 501.868 613.778 500.029 613.164C497.883 612.245 499.416 611.631 503.708 611.631C508 611.631 509.533 612.245 507.694 613.164ZM642.598 613.164C640.452 613.778 636.159 613.778 633.4 613.164C630.334 612.245 632.173 611.631 637.079 611.631C642.291 611.631 644.437 612.245 642.598 613.164ZM348.262 616.23C344.276 616.844 337.531 616.844 332.932 616.23C328.026 615.617 331.399 615.004 339.677 615.004C348.262 615.004 351.941 615.617 348.262 616.23ZM467.836 616.23C463.85 616.844 457.105 616.844 452.506 616.23C447.6 615.617 450.973 615.004 459.251 615.004C467.836 615.004 471.515 615.617 467.836 616.23ZM621.136 616.23C618.99 616.844 615.31 616.844 613.471 616.23C611.325 615.311 612.858 614.697 617.15 614.697C621.442 614.697 622.975 615.311 621.136 616.23ZM492.364 619.296C490.218 619.91 485.925 619.91 483.166 619.296C480.1 618.377 481.939 617.763 486.845 617.763C492.057 617.763 494.203 618.377 492.364 619.296ZM571.16 620.216C568.707 621.749 565.335 623.282 563.495 623.282C561.962 623.282 562.575 621.749 565.028 620.216C567.481 618.683 571.16 617.15 572.693 617.15C574.533 617.15 573.613 618.683 571.16 620.216ZM607.032 618.99C606.112 619.91 603.353 620.216 601.207 619.296C598.754 618.377 599.674 617.457 603.046 617.457C606.419 617.15 608.259 618.07 607.032 618.99ZM653.022 618.99C652.102 619.91 649.343 620.216 647.197 619.296C644.744 618.377 645.664 617.457 649.036 617.457C652.409 617.15 654.249 618.07 653.022 618.99ZM667.126 619.296C664.98 619.91 661.3 619.91 659.461 619.296C657.315 618.377 658.848 617.763 663.14 617.763C667.432 617.763 668.965 618.377 667.126 619.296ZM685.522 619.296C683.376 619.91 679.083 619.91 676.324 619.296C673.258 618.377 675.097 617.763 680.003 617.763C685.215 617.763 687.361 618.377 685.522 619.296ZM757.573 619.296C752.974 619.91 744.696 619.91 739.177 619.296C733.658 618.683 737.337 618.07 747.455 618.07C757.573 618.07 762.172 618.683 757.573 619.296ZM513.826 622.362C511.68 622.976 508 622.976 506.161 622.362C504.015 621.443 505.548 620.829 509.84 620.829C514.132 620.829 515.665 621.443 513.826 622.362Z" fill="#111827"/>
<path d="M325.88 636.159C316.682 637.692 306.564 638.306 303.805 637.386C301.045 636.773 297.979 637.999 297.06 640.452C294.913 645.664 294.3 645.664 346.116 640.145C369.724 637.692 394.865 635.24 402.53 634.626C410.195 634.013 399.771 633.4 379.535 633.4C359.299 633.4 335.078 634.32 325.88 636.159Z" fill="#111827"/>
<path d="M765.238 634.626C767.997 635.239 772.29 635.239 774.436 634.626C776.275 633.706 774.129 633.093 768.917 633.093C764.011 633.093 762.172 633.706 765.238 634.626Z" fill="black"/>
<path d="M972.806 520.571C972.806 523.024 975.566 525.17 978.938 525.17C982.311 525.17 985.07 523.024 985.07 520.571C985.07 518.118 982.311 515.972 978.938 515.972C975.566 515.972 972.806 518.118 972.806 520.571Z" fill="#111827"/>
<path d="M106.354 538.661C103.595 545.712 106.354 554.297 111.26 554.297C114.326 554.297 116.166 550.618 116.779 544.179C117.392 536.821 116.472 534.368 112.793 534.368C110.34 534.368 107.274 536.208 106.354 538.661Z" fill="#111827"/>
<path d="M914.552 560.429C914.552 562.882 917.311 565.028 920.684 565.028C924.057 565.028 926.816 562.882 926.816 560.429C926.816 557.976 924.057 555.83 920.684 555.83C917.311 555.83 914.552 557.976 914.552 560.429Z" fill="#111827"/>
<path d="M966.674 558.896C966.674 560.429 969.433 561.962 972.806 561.962C976.178 561.962 978.938 560.429 978.938 558.896C978.938 557.057 976.178 555.83 972.806 555.83C969.433 555.83 966.674 557.057 966.674 558.896Z" fill="#111827"/>
<path d="M966.674 573C966.674 575.759 968.82 577.292 971.886 576.679C979.551 575.146 980.471 568.094 973.112 568.094C969.433 568.094 966.674 569.934 966.674 573Z" fill="#111827"/>
<path d="M289.088 839.435C283.263 846.487 286.635 854.765 295.22 854.765C301.045 854.765 303.192 852.926 303.805 847.407C305.338 836.676 295.833 831.157 289.088 839.435Z" fill="#111827"/>
<path d="M378.922 911.486C375.856 920.071 376.162 920.991 382.601 922.524C393.332 925.283 400.69 922.83 401.917 916.392C403.143 909.953 395.172 902.288 387.2 902.288C384.747 902.288 380.761 906.581 378.922 911.486Z" fill="#111827"/>
<path d="M643.517 920.378C642.598 921.604 645.357 933.561 649.649 946.439C657.314 969.434 661.607 973.726 671.111 967.287C689.814 955.023 677.857 917.618 655.475 917.618C649.649 917.618 644.437 918.845 643.517 920.378Z" fill="#111827"/>
<rect x="52" y="410" width="159" height="261" fill="#111827"/>
<rect x="857" y="410" width="159" height="261" fill="#111827"/>
<path d="M69.3535 554V550.643L77.6504 541.73C78.4941 540.781 79.1562 539.955 79.6367 539.252C80.1172 538.549 80.457 537.91 80.6562 537.336C80.8672 536.75 80.9727 536.17 80.9727 535.596C80.9727 534.6 80.6855 533.756 80.1113 533.064C79.5488 532.373 78.7168 532.027 77.6152 532.027C76.4316 532.027 75.5352 532.414 74.9258 533.188C74.3164 533.949 74.0117 535.004 74.0117 536.352H69.0195L68.9844 536.246C68.9492 534.699 69.2773 533.311 69.9688 532.08C70.6719 530.838 71.6797 529.854 72.9922 529.127C74.3164 528.4 75.875 528.037 77.668 528.037C79.4258 528.037 80.9316 528.354 82.1855 528.986C83.4512 529.607 84.4238 530.48 85.1035 531.605C85.7832 532.73 86.123 534.031 86.123 535.508C86.123 536.527 85.9414 537.488 85.5781 538.391C85.2148 539.281 84.6465 540.225 83.873 541.221C83.0996 542.217 82.1035 543.359 80.8848 544.648L75.9102 549.992L75.9453 550.08H82.5723L82.8359 547.637H86.8086V554H69.3535ZM111.137 554.369C108.466 554.369 106.35 553.496 104.792 551.75C103.233 549.992 102.454 547.42 102.454 544.033V538.391C102.454 535.016 103.227 532.449 104.774 530.691C106.333 528.922 108.442 528.037 111.102 528.037C113.751 528.037 115.854 528.922 117.413 530.691C118.983 532.449 119.768 535.016 119.768 538.391V544.033C119.768 547.42 118.989 549.992 117.43 551.75C115.884 553.496 113.786 554.369 111.137 554.369ZM111.137 550.432C112.286 550.432 113.159 549.963 113.757 549.025C114.354 548.088 114.653 546.588 114.653 544.525V537.863C114.653 535.824 114.348 534.336 113.739 533.398C113.13 532.461 112.251 531.992 111.102 531.992C109.942 531.992 109.063 532.461 108.466 533.398C107.868 534.336 107.569 535.824 107.569 537.863V544.525C107.569 546.588 107.868 548.088 108.466 549.025C109.075 549.963 109.966 550.432 111.137 550.432ZM135.449 554V550.643L143.746 541.73C144.589 540.781 145.251 539.955 145.732 539.252C146.212 538.549 146.552 537.91 146.751 537.336C146.962 536.75 147.068 536.17 147.068 535.596C147.068 534.6 146.781 533.756 146.206 533.064C145.644 532.373 144.812 532.027 143.71 532.027C142.527 532.027 141.63 532.414 141.021 533.188C140.412 533.949 140.107 535.004 140.107 536.352H135.115L135.08 536.246C135.044 534.699 135.372 533.311 136.064 532.08C136.767 530.838 137.775 529.854 139.087 529.127C140.412 528.4 141.97 528.037 143.763 528.037C145.521 528.037 147.027 528.354 148.281 528.986C149.546 529.607 150.519 530.48 151.199 531.605C151.878 532.73 152.218 534.031 152.218 535.508C152.218 536.527 152.037 537.488 151.673 538.391C151.31 539.281 150.742 540.225 149.968 541.221C149.195 542.217 148.199 543.359 146.98 544.648L142.005 549.992L142.04 550.08H148.667L148.931 547.637H152.904V554H135.449ZM176.582 554.369C174.953 554.369 173.471 554.082 172.135 553.508C170.799 552.934 169.738 552.102 168.953 551.012C168.18 549.91 167.811 548.58 167.846 547.021L167.881 546.916H172.856C172.856 547.596 173.008 548.199 173.313 548.727C173.617 549.254 174.045 549.67 174.596 549.975C175.158 550.279 175.82 550.432 176.582 550.432C177.766 550.432 178.697 550.098 179.377 549.43C180.069 548.762 180.414 547.842 180.414 546.67C180.414 545.475 180.074 544.543 179.395 543.875C178.715 543.207 177.69 542.873 176.319 542.873H173.541V539.023H176.424C177.244 539.023 177.918 538.883 178.445 538.602C178.973 538.309 179.365 537.898 179.623 537.371C179.881 536.844 180.01 536.223 180.01 535.508C180.01 534.43 179.717 533.574 179.131 532.941C178.545 532.309 177.695 531.992 176.582 531.992C175.914 531.992 175.322 532.127 174.807 532.396C174.291 532.654 173.887 533.023 173.594 533.504C173.313 533.984 173.172 534.541 173.172 535.174H168.197L168.162 535.068C168.127 533.709 168.461 532.502 169.164 531.447C169.867 530.381 170.858 529.549 172.135 528.951C173.424 528.342 174.895 528.037 176.547 528.037C179.137 528.037 181.217 528.67 182.787 529.936C184.358 531.189 185.143 532.971 185.143 535.279C185.143 536.475 184.809 537.553 184.141 538.514C183.485 539.475 182.5 540.26 181.188 540.869C182.606 541.373 183.684 542.146 184.422 543.189C185.172 544.232 185.547 545.445 185.547 546.828C185.547 548.387 185.16 549.729 184.387 550.854C183.613 551.979 182.547 552.846 181.188 553.455C179.84 554.064 178.305 554.369 176.582 554.369Z" fill="#F59E0B"/>
<path d="M902.999 531V527.924L905.724 527.396V509.027L902.999 508.5V505.406H913.581V508.5L910.856 509.027V527.396L913.581 527.924V531H902.999ZM924.19 531V527.924L926.914 527.396V509.027L924.19 508.5V505.406H944.563V512.42H940.625L940.397 509.361H932.047V516.41H941.012V520.365H932.047V527.396L934.789 527.924V531H924.19ZM965.525 531.369C963.638 531.369 961.922 531.158 960.375 530.736C958.828 530.314 957.304 529.582 955.804 528.539V522.352H959.777L960.322 525.99C960.849 526.436 961.576 526.799 962.502 527.08C963.427 527.35 964.435 527.484 965.525 527.484C966.451 527.484 967.23 527.355 967.863 527.098C968.507 526.84 968.994 526.477 969.322 526.008C969.662 525.527 969.832 524.965 969.832 524.32C969.832 523.711 969.679 523.172 969.375 522.703C969.082 522.223 968.59 521.789 967.898 521.402C967.218 521.004 966.293 520.623 965.121 520.26C963.093 519.662 961.412 519.012 960.076 518.309C958.752 517.594 957.756 516.744 957.088 515.76C956.431 514.764 956.103 513.568 956.103 512.174C956.103 510.791 956.484 509.572 957.246 508.518C958.019 507.451 959.086 506.613 960.445 506.004C961.804 505.395 963.375 505.078 965.156 505.055C967.125 505.031 968.865 505.266 970.377 505.758C971.9 506.25 973.213 506.936 974.314 507.814V513.58H970.465L969.797 510.064C969.351 509.783 968.748 509.537 967.986 509.326C967.236 509.115 966.381 509.01 965.42 509.01C964.599 509.01 963.873 509.133 963.24 509.379C962.619 509.625 962.127 509.982 961.763 510.451C961.4 510.92 961.218 511.488 961.218 512.156C961.218 512.73 961.377 513.234 961.693 513.668C962.009 514.09 962.537 514.494 963.275 514.881C964.025 515.256 965.056 515.66 966.369 516.094C969.193 516.879 971.332 517.916 972.785 519.205C974.25 520.494 974.982 522.188 974.982 524.285C974.982 525.738 974.59 526.998 973.804 528.064C973.019 529.119 971.918 529.934 970.5 530.508C969.082 531.082 967.424 531.369 965.525 531.369ZM985.661 531V527.924L988.386 527.396V509.027L985.661 508.5V505.406H988.386H997.843C999.8 505.406 1001.49 505.752 1002.91 506.443C1004.32 507.123 1005.41 508.078 1006.17 509.309C1006.94 510.527 1007.32 511.951 1007.32 513.58C1007.32 515.209 1006.94 516.639 1006.17 517.869C1005.41 519.088 1004.32 520.037 1002.91 520.717C1001.49 521.385 999.8 521.719 997.843 521.719H993.519V527.396L996.261 527.924V531H985.661ZM993.519 517.764H997.843C999.272 517.764 1000.35 517.377 1001.08 516.604C1001.82 515.818 1002.18 514.822 1002.18 513.615C1002.18 512.385 1001.82 511.371 1001.08 510.574C1000.35 509.766 999.272 509.361 997.843 509.361H993.519V517.764ZM911.661 578V574.924L914.385 574.396V556.027L911.661 555.5V552.406H914.385H923.842C925.799 552.406 927.487 552.752 928.905 553.443C930.323 554.123 931.413 555.078 932.174 556.309C932.936 557.527 933.317 558.951 933.317 560.58C933.317 562.209 932.936 563.639 932.174 564.869C931.413 566.088 930.323 567.037 928.905 567.717C927.487 568.385 925.799 568.719 923.842 568.719H919.518V574.396L922.26 574.924V578H911.661ZM919.518 564.764H923.842C925.272 564.764 926.35 564.377 927.077 563.604C927.815 562.818 928.184 561.822 928.184 560.615C928.184 559.385 927.815 558.371 927.077 557.574C926.35 556.766 925.272 556.361 923.842 556.361H919.518V564.764ZM949.498 578V574.924L952.24 574.396V556.361H947.582L947.301 559.42H943.416V552.406H966.25V559.42H962.348L962.066 556.361H957.373V574.396L960.133 574.924V578H949.498ZM976.683 578V574.924L979.408 574.396V556.027L976.683 555.5V552.406H979.408H988.056C991.068 552.406 993.417 552.992 995.105 554.164C996.792 555.336 997.636 557.088 997.636 559.42C997.636 560.604 997.32 561.664 996.687 562.602C996.066 563.527 995.158 564.225 993.962 564.693C994.982 564.916 995.831 565.309 996.511 565.871C997.202 566.434 997.718 567.119 998.058 567.928C998.398 568.725 998.568 569.598 998.568 570.547C998.568 572.996 997.759 574.854 996.142 576.119C994.525 577.373 992.234 578 989.269 578H976.683ZM984.54 574.062H989.269C990.628 574.062 991.665 573.77 992.38 573.184C993.095 572.586 993.452 571.707 993.452 570.547C993.452 569.703 993.318 568.994 993.048 568.42C992.779 567.846 992.363 567.412 991.8 567.119C991.249 566.826 990.535 566.68 989.656 566.68H984.54V574.062ZM984.54 563.129H988.232C989.603 563.129 990.658 562.848 991.396 562.285C992.134 561.723 992.503 560.902 992.503 559.824C992.503 558.641 992.128 557.768 991.378 557.205C990.64 556.643 989.533 556.361 988.056 556.361H984.54V563.129Z" fill="#F59E0B"/>
<path d="M68 612H187" stroke="#F59E0B" stroke-width="4"/>
<path d="M68 612H187" stroke="#F59E0B" stroke-width="4"/>
<path d="M68 470H187" stroke="#F59E0B" stroke-width="4"/>
<path d="M68 470H187" stroke="#F59E0B" stroke-width="4"/>
<path d="M895 612H1014" stroke="#F59E0B" stroke-width="4"/>
<path d="M895 612H1014" stroke="#F59E0B" stroke-width="4"/>
<path d="M895 470H1014" stroke="#F59E0B" stroke-width="4"/>
<path d="M895 470H1014" stroke="#F59E0B" stroke-width="4"/>
<circle cx="128" cy="434" r="12" fill="#F59E0B"/>
<circle cx="128" cy="651" r="12" fill="#F59E0B"/>
<circle cx="955" cy="434" r="12" fill="#F59E0B"/>
<circle cx="955" cy="648" r="12" fill="#F59E0B"/>
</g>
<defs>
<clipPath id="clip0_1214_1042">
<rect width="1080" height="1080" fill="white"/>
</clipPath>
</defs>
</svg>
